'This file is auto-generated by generate_plantuml.py
@startuml hyperion_parameter_model
title Hyperion Internal Parameter Model (Centring and GridScans)
set namespaceSeparator none

!include common_params.puml

package mx_bluesky.common.parameters {
    together {
        class GridDetectionParams {
            float box_size_um
            float grid_width_um
        }
        class GridScanParams {
            list[int] omega_starts_deg
            float x_start_um
            list[float] y_starts_um
            list[float] z_starts_um
            int x_steps
            list[int] y_steps
            float x_step_size_um
            list[float] y_step_sizes_um
        }
    }
}

package mx_bluesky.hyperion.parameters {
    class PinTipCentreThenXrayCentre
    class RobotLoadThenCentre
}

GridScanParams <|-- PinTipCentreThenXrayCentre
OptionalGonioAngleStarts <|-- PinTipCentreThenXrayCentre
DiffractionExperimentWithSample <|-- PinTipCentreThenXrayCentre
PinTipCentreThenXrayCentre <|-- RobotLoadThenCentre
@enduml
