'This file is auto-generated by generate_plantuml.py
@startuml hyperion_parameter_model
title Hyperion Internal Parameter Model (Rotation)
set namespaceSeparator none

!include common_params.puml

package mx_bluesky.common.parameters {
together {
class RotationExperiment
class SingleRotationScan
class RotationScanPerSweep
class RotationScan
}
}
package mx_bluesky.hyperion.parameters {
}


DiffractionExperimentWithSample <|-- SingleRotationScan
DiffractionExperimentWithSample <|-- RotationScan
RotationExperiment <|-- SingleRotationScan
RotationScanPerSweep <|-- SingleRotationScan
DiffractionExperiment <|-- RotationExperiment
OptionalGonioAngleStarts <|-- RotationScanPerSweep
WithSample <|-- RotationScanPerSweep
@enduml
